:FULLY-SPECIFIED
:FORCE-ALL-JOINTS-BE-3DOF
:DEGREES
1019
root 1.15407 15.1573 32.462 4.74153 -3.86905 3.49829
lfemur 9.00872 0.794695 5.97865
ltibia -0.459523 0 0
lfoot -30.1939 -10.7816 0.00163671
ltoes -34.7154 0 0
rfemur -32.0378 -16.0381 -5.78776
rtibia 50.6807 -0 0
rfoot -22.7445 5.30292 0.00915883
rtoes -41.9182 0 0
lowerback -1.369 -0.168238 0.342194
upperback -0.445453 -0.212363 -5.82853
thorax 0.28707 -0.110876 -6.23604
lowerneck -7.07805 1.04243 6.54964
upperneck 1.52231 0.689514 3.52917
head 1.68925 0.477025 0.0250448
lclavicle 3.34413e-15 -2.16467e-14 -1.24527e-30
lhumerus -58.5193 -46.4746 115.517
lradius 55.5482 -0 0
lwrist 25.1983 0 0
lhand 36.8513 24.9195 0.00131589
lfingers 7.12502 -0 0
lthumb 59.7457 39.0231 0.0138189
rclavicle 3.34413e-15 -2.16467e-14 -1.24527e-30
rhumerus 3.00646 -22.8015 0.845811
rradius 27.4195 -0 0
rwrist -9.93616 0 0
rhand -29.8238 -42.3076 -0.0713346
rfingers 7.12502 -0 0
rthumb -3.14778 -72.2858 -0.0657255
1020
root 1.15442 15.1579 32.4616 4.74616 -3.8091 3.49319
lfemur 8.95374 0.745296 5.96447
ltibia -0.410868 0 0
lfoot -30.1902 -10.8005 0.00146087
ltoes -34.6884 0 0
rfemur -31.968 -16.0322 -5.80867
rtibia 50.6262 -0 0
rfoot -22.6868 5.2728 0.00806041
rtoes -41.9419 0 0
lowerback -1.3807 -0.159591 0.321126
upperback -0.452225 -0.200279 -5.8455
thorax 0.287982 -0.104907 -6.24198
lowerneck -7.09472 1.02405 6.53359
upperneck 1.54664 0.663633 3.53615
head 1.69982 0.465199 0.0291667
lclavicle 3.28249e-15 -2.04699e-14 -1.10588e-30
lhumerus -58.5408 -46.4999 115.503
lradius 55.5748 -0 0
lwrist 25.2041 0 0
lhand 36.8983 24.9359 0.00123336
lfingers 7.12502 -0 0
lthumb 59.7851 38.9921 0.0122657
rclavicle 3.28249e-15 -2.04699e-14 -1.10588e-30
rhumerus 2.96543 -22.9018 0.784249
rradius 27.4326 -0 0
rwrist -9.94227 0 0
rhand -29.9071 -42.3321 -0.0637459
rfingers 7.12502 -0 0
rthumb -3.22811 -72.3066 -0.058753
1021
root 1.15454 15.1584 32.461 4.75318 -3.74677 3.48966
lfemur 8.89335 0.694913 5.94664
ltibia -0.356806 0 0
lfoot -30.1859 -10.8238 0.00126498
ltoes -34.6566 0 0
rfemur -31.8954 -16.024 -5.83275
rtibia 50.5677 -0 0
rfoot -22.6239 5.23926 0.00687798
rtoes -41.9675 0 0
lowerback -1.39396 -0.151032 0.299496
upperback -0.460407 -0.188311 -5.8641
thorax 0.288284 -0.099033 -6.24935
lowerneck -7.11145 1.00445 6.51412
upperneck 1.57152 0.636412 3.54305
head 1.71055 0.452698 0.0337969
lclavicle 3.20159e-15 -1.91892e-14 -9.52652e-31
lhumerus -58.5635 -46.5231 115.486
lradius 55.602 -0 0
lwrist 25.2102 0 0
lhand 36.9506 24.9522 0.00112029
lfingers 7.12502 -0 0
lthumb 59.8289 38.9557 0.0105602
rclavicle 3.20159e-15 -1.91892e-14 -9.52652e-31
rhumerus 2.92341 -23.0172 0.71458
rradius 27.4485 -0 0
rwrist -9.95317 0 0
rhand -30.0022 -42.3658 -0.055265
rfingers 7.12502 -0 0
rthumb -3.31993 -72.3363 -0.0509535
1022
root 1.15441 15.1588 32.4603 4.76266 -3.68203 3.48777
lfemur 8.82741 0.643554 5.92506
ltibia -0.297184 0 0
lfoot -30.181 -10.8517 0.00104927
ltoes -34.6199 0 0
rfemur -31.8199 -16.0135 -5.8601
rtibia 50.5051 -0 0
rfoot -22.5558 5.20222 0.00561855
rtoes -41.9951 0 0
lowerback -1.40881 -0.142577 0.277305
upperback -0.470044 -0.176477 -5.88439
thorax 0.287952 -0.0932663 -6.25823
lowerneck -7.12821 0.983616 6.49111
upperneck 1.59696 0.607827 3.54987
head 1.72145 0.439508 0.0389505
lclavicle 3.10078e-15 -1.78018e-14 -7.86024e-31
lhumerus -58.5874 -46.5439 115.465
lradius 55.6298 -0 0
lwrist 25.2166 0 0
lhand 37.0082 24.9685 0.000973951
lfingers 7.12502 -0 0
lthumb 59.8772 38.9139 0.00870774
rclavicle 3.10078e-15 -1.78018e-14 -7.86024e-31
rhumerus 2.88043 -23.1484 0.636558
rradius 27.4675 -0 0
rwrist -9.96902 0 0
rhand -30.1096 -42.4092 -0.0458985
rfingers 7.12502 -0 0
rthumb -3.42361 -72.375 -0.0423324
1023
root 1.15401 15.1591 32.4595 4.77471 -3.61487 3.48759
lfemur 8.75577 0.591228 5.8996
ltibia -0.231847 0 0
lfoot -30.1755 -10.8844 0.000814184
ltoes -34.578 0 0
rfemur -31.7417 -16.0006 -5.8908
rtibia 50.4384 -0 0
rfoot -22.4822 5.16156 0.00429045
rtoes -42.0246 0 0
lowerback -1.42531 -0.13424 0.254555
upperback -0.481184 -0.164798 -5.90641
thorax 0.286961 -0.087617 -6.26864
lowerneck -7.145 0.961505 6.46446
upperneck 1.62294 0.577856 3.55658
head 1.7325 0.425618 0.0446423
lclavicle 2.97937e-15 -1.63051e-14 -6.06597e-31
lhumerus -58.6124 -46.5623 115.44
lradius 55.6581 -0 0
lwrist 25.2235 0 0
lhand 37.0714 24.9847 0.000791552
lfingers 7.12502 -0 0
lthumb 59.9301 38.8665 0.00671553
rclavicle 2.97937e-15 -1.63051e-14 -6.06597e-31
rhumerus 2.83657 -23.2957 0.549934
rradius 27.4896 -0 0
rwrist -9.99001 0 0
rhand -30.2297 -42.4625 -0.0356609
rfingers 7.12502 -0 0
rthumb -3.5395 -72.4233 -0.0329019
1024
root 1.15334 15.1593 32.4585 4.7894 -3.54525 3.48918
lfemur 8.6783 0.537941 5.87014
ltibia -0.16064 0 0
lfoot -30.1693 -10.922 0.00056034
ltoes -34.5307 0 0
rfemur -31.6605 -15.9852 -5.92496
rtibia 50.3675 -0 0
rfoot -22.4031 5.1172 0.0029035
rtoes -42.0561 0 0
lowerback -1.4435 -0.126034 0.231248
upperback -0.493875 -0.153291 -5.9302
thorax 0.285286 -0.0820958 -6.28065
lowerneck -7.16178 0.938094 6.43405
upperneck 1.64946 0.546475 3.56318
head 1.74371 0.411014 0.0508871
lclavicle 2.83669e-15 -1.46964e-14 -4.1513e-31
lhumerus -58.6385 -46.5781 115.412
lradius 55.687 -0 0
lwrist 25.2308 0 0
lhand 37.1403 25.0008 0.0005703
lfingers 7.12502 -0 0
lthumb 59.9878 38.8132 0.00459249
rclavicle 2.83669e-15 -1.46964e-14 -4.1513e-31
rhumerus 2.7919 -23.4597 0.454456
rradius 27.515 -0 0
rwrist -10.0163 0 0
rhand -30.3628 -42.5262 -0.0245754
rfingers 7.12502 -0 0
rthumb -3.66796 -72.4813 -0.0226823
